<svg xmlns="http://www.w3.org/2000/svg" xmlns:xlink="http://www.w3.org/1999/xlink" width="500" zoomAndPan="magnify" viewBox="0 0 375 374.999991" height="500" preserveAspectRatio="xMidYMid meet" version="1.0"><defs><g/><clipPath id="7342db8a62"><path d="M 116.214844 97 L 227 97 L 227 225.222656 L 116.214844 225.222656 Z M 116.214844 97 " clip-rule="nonzero"/></clipPath><clipPath id="c0c0716e51"><path d="M 189 121 L 213 121 L 213 225.222656 L 189 225.222656 Z M 189 121 " clip-rule="nonzero"/></clipPath></defs><g clip-path="url(#7342db8a62)"><path fill="#5e17eb" d="M 211.304688 221.65625 C 211.792969 223.347656 210.519531 225.039062 208.753906 225.039062 L 165.585938 225.039062 C 164.296875 225.039062 163.195312 224.117188 162.976562 222.84375 C 162.179688 218.269531 160.128906 207.945312 157.582031 205.578125 C 153.582031 201.863281 144.257812 204.082031 138.519531 204.316406 C 125.496094 204.992188 127.914062 195.179688 126.1875 185.488281 C 126.011719 184.484375 125.792969 183.476562 125.496094 182.484375 C 125.496094 182.472656 125.484375 182.460938 125.484375 182.445312 C 123.035156 174.167969 116.164062 176 116.472656 170.136719 C 116.65625 166.558594 126.382812 161.945312 126.40625 150.703125 C 126.414062 147.535156 125.839844 142.703125 125.746094 139.40625 C 124.96875 114.496094 149.046875 96.429688 177.175781 97.890625 C 202.902344 99.21875 221.507812 113.171875 225.503906 139.527344 C 227.957031 155.773438 222.746094 168.996094 211 184.238281 C 208.054688 188.066406 206.597656 194.710938 206.902344 199.53125 C 207.390625 207.269531 209.867188 216.710938 211.304688 221.65625 " fill-opacity="1" fill-rule="nonzero"/></g><path fill="#92b4f4" d="M 213.023438 193.054688 C 229.609375 192.535156 247.898438 178.972656 247.585938 153.511719 C 247.324219 132.15625 258.648438 115.519531 246.082031 113.042969 C 235.964844 111.050781 231.15625 123.8125 221.171875 130.367188 C 221.171875 130.367188 207.558594 142.117188 204.492188 150.292969 C 201.429688 158.472656 198.488281 173.746094 201.550781 182.027344 C 204.617188 190.304688 209.757812 193.160156 213.023438 193.054688 " fill-opacity="1" fill-rule="nonzero"/><path fill="#cff27e" d="M 208.238281 191.214844 C 208.238281 191.214844 236.664062 175.152344 220.503906 139.28125 C 214.328125 125.585938 202.5625 112.824219 194.730469 99.210938 C 187.257812 86.21875 168.363281 91.601562 171.644531 106.414062 C 176.871094 130.027344 172.269531 136.332031 173.867188 150.628906 C 178.21875 189.4375 208.238281 191.214844 208.238281 191.214844 " fill-opacity="1" fill-rule="nonzero"/><path fill="#58504a" d="M 214.539062 108.039062 C 216.757812 109.4375 219.847656 108.757812 221.296875 108.308594 C 221.796875 108.152344 222.09375 107.683594 222.023438 107.171875 C 221.800781 105.667969 221.085938 102.582031 218.875 101.179688 C 216.65625 99.785156 213.566406 100.464844 212.109375 100.910156 C 211.617188 101.0625 211.320312 101.53125 211.390625 102.050781 C 211.613281 103.554688 212.324219 106.640625 214.539062 108.039062 " fill-opacity="1" fill-rule="nonzero"/><path fill="#58504a" d="M 159.535156 90.980469 C 161.730469 89.546875 162.394531 86.449219 162.597656 84.945312 C 162.664062 84.425781 162.359375 83.960938 161.859375 83.816406 C 160.402344 83.390625 157.300781 82.753906 155.105469 84.1875 C 152.910156 85.621094 152.246094 88.714844 152.046875 90.222656 C 151.980469 90.734375 152.285156 91.199219 152.78125 91.347656 C 154.242188 91.769531 157.347656 92.414062 159.535156 90.980469 " fill-opacity="1" fill-rule="nonzero"/><path fill="#f4ecd6" d="M 132.777344 156.890625 C 132 156.890625 131.207031 156.703125 130.445312 156.25 C 129.722656 155.816406 129.480469 154.875 129.917969 154.152344 C 130.351562 153.421875 131.292969 153.183594 132.019531 153.617188 C 133.292969 154.378906 135.234375 152.761719 135.253906 152.742188 C 135.886719 152.1875 136.855469 152.25 137.414062 152.886719 C 137.976562 153.523438 137.914062 154.492188 137.273438 155.050781 C 136.339844 155.871094 134.613281 156.890625 132.777344 156.890625 " fill-opacity="1" fill-rule="nonzero"/><path fill="#f4ecd6" d="M 134.386719 183.734375 C 131.050781 185.257812 128.253906 185.503906 126.773438 185.503906 C 126.539062 185.503906 126.34375 185.503906 126.1875 185.488281 C 126.011719 184.484375 125.792969 183.476562 125.496094 182.484375 C 125.496094 182.472656 125.484375 182.460938 125.484375 182.445312 C 125.667969 182.398438 125.863281 182.386719 126.0625 182.414062 C 126.125 182.414062 129.140625 182.753906 133.113281 180.953125 C 133.886719 180.597656 134.792969 180.9375 135.140625 181.714844 C 135.492188 182.484375 135.148438 183.390625 134.386719 183.734375 " fill-opacity="1" fill-rule="nonzero"/><g clip-path="url(#c0c0716e51)"><path fill="#f4ecd6" d="M 210.671875 225.28125 C 210.117188 225.28125 209.582031 224.980469 209.3125 224.453125 C 206.226562 218.476562 205.28125 206.3125 206.714844 191.070312 C 208.746094 169.457031 202.652344 137.355469 190.332031 124.027344 C 189.761719 123.40625 189.796875 122.433594 190.417969 121.863281 C 191.042969 121.285156 192.015625 121.328125 192.589844 121.945312 C 205.882812 136.332031 211.855469 169.179688 209.769531 191.355469 C 208.40625 205.808594 209.253906 217.660156 212.035156 223.046875 C 212.421875 223.796875 212.128906 224.722656 211.378906 225.109375 C 211.152344 225.226562 210.914062 225.28125 210.671875 225.28125 " fill-opacity="1" fill-rule="nonzero"/></g><path fill="#f4ecd6" d="M 202.925781 213.648438 C 202.585938 213.648438 202.242188 213.53125 201.953125 213.296875 C 201.820312 213.183594 198.542969 210.480469 196.378906 207.648438 C 195.867188 206.972656 195.992188 206.015625 196.667969 205.5 C 197.339844 204.984375 198.300781 205.113281 198.8125 205.785156 C 200.761719 208.335938 203.871094 210.902344 203.90625 210.925781 C 204.554688 211.46875 204.652344 212.429688 204.117188 213.085938 C 203.8125 213.457031 203.371094 213.648438 202.925781 213.648438 " fill-opacity="1" fill-rule="nonzero"/><path fill="#cff27e" d="M 196.71875 208.257812 C 184.5625 208.257812 177.804688 203.238281 175.699219 198.847656 C 174.246094 195.828125 174.59375 192.683594 176.640625 190.230469 C 178.410156 188.113281 180.886719 187.238281 183.613281 187.777344 C 189.632812 188.960938 195.984375 196.558594 199.054688 206.253906 C 199.207031 206.714844 199.125 207.21875 198.839844 207.609375 C 198.558594 208.003906 198.113281 208.238281 197.628906 208.25 C 197.324219 208.257812 197.019531 208.257812 196.71875 208.257812 " fill-opacity="1" fill-rule="nonzero"/><path fill="#f4ecd6" d="M 214.136719 219.546875 C 213.605469 219.546875 213.09375 219.269531 212.808594 218.78125 C 212.382812 218.050781 212.632812 217.109375 213.367188 216.6875 C 218.113281 213.9375 220.019531 211.664062 220.039062 211.644531 C 220.578125 210.992188 221.542969 210.898438 222.195312 211.433594 C 222.84375 211.964844 222.945312 212.929688 222.414062 213.578125 C 222.328125 213.691406 220.195312 216.273438 214.902344 219.34375 C 214.660156 219.480469 214.394531 219.546875 214.136719 219.546875 " fill-opacity="1" fill-rule="nonzero"/><path fill="#92b4f4" d="M 221.226562 214.148438 C 220.789062 214.148438 220.367188 213.964844 220.070312 213.628906 C 219.699219 213.203125 219.59375 212.605469 219.789062 212.082031 C 222.828125 203.960938 226.09375 199.519531 229.503906 198.878906 C 230.707031 198.65625 232.503906 198.796875 234.25 200.75 C 235.441406 202.082031 235.804688 203.746094 235.265625 205.4375 C 234.117188 209.082031 228.867188 212.40625 221.574219 214.105469 C 221.457031 214.136719 221.339844 214.148438 221.226562 214.148438 " fill-opacity="1" fill-rule="nonzero"/><g fill="#5e17eb" fill-opacity="1"><g transform="translate(109.467296, 274.654773)"><g><path d="M 11 -11.125 L 6.171875 -11.125 L 6.171875 0 L 3.484375 0 L 3.484375 -29.296875 L 10.515625 -29.296875 C 13.941406 -29.296875 16.628906 -28.429688 18.578125 -26.703125 C 20.535156 -24.984375 21.515625 -22.71875 21.515625 -19.90625 C 21.515625 -17.46875 20.566406 -15.394531 18.671875 -13.6875 C 16.773438 -11.976562 14.21875 -11.125 11 -11.125 Z M 10.828125 -26.90625 L 6.171875 -26.90625 L 6.171875 -13.515625 L 11.296875 -13.515625 C 13.585938 -13.515625 15.40625 -14.125 16.75 -15.34375 C 18.101562 -16.5625 18.78125 -18.082031 18.78125 -19.90625 C 18.78125 -22.050781 18.082031 -23.753906 16.6875 -25.015625 C 15.300781 -26.273438 13.347656 -26.90625 10.828125 -26.90625 Z M 10.828125 -26.90625 "/></g></g></g><g fill="#5e17eb" fill-opacity="1"><g transform="translate(132.938443, 274.654773)"><g><path d="M 20.078125 -7.5625 C 20.078125 -5.007812 19.222656 -3.0625 17.515625 -1.71875 C 15.804688 -0.375 13.617188 0.296875 10.953125 0.296875 C 7.941406 0.296875 5.378906 -0.335938 3.265625 -1.609375 L 3.265625 -4.609375 C 4.128906 -3.941406 5.25 -3.390625 6.625 -2.953125 C 8 -2.515625 9.398438 -2.296875 10.828125 -2.296875 C 12.878906 -2.296875 14.476562 -2.742188 15.625 -3.640625 C 16.769531 -4.546875 17.34375 -5.835938 17.34375 -7.515625 C 17.34375 -8.796875 16.90625 -9.832031 16.03125 -10.625 C 15.164062 -11.425781 13.910156 -12.1875 12.265625 -12.90625 C 12.023438 -13.019531 11.515625 -13.242188 10.734375 -13.578125 C 9.953125 -13.910156 9.398438 -14.148438 9.078125 -14.296875 C 8.765625 -14.441406 8.273438 -14.6875 7.609375 -15.03125 C 6.941406 -15.382812 6.453125 -15.691406 6.140625 -15.953125 C 5.835938 -16.210938 5.453125 -16.554688 4.984375 -16.984375 C 4.523438 -17.421875 4.191406 -17.859375 3.984375 -18.296875 C 3.785156 -18.734375 3.597656 -19.25 3.421875 -19.84375 C 3.253906 -20.4375 3.171875 -21.066406 3.171875 -21.734375 C 3.171875 -24.191406 4.050781 -26.109375 5.8125 -27.484375 C 7.582031 -28.867188 9.742188 -29.5625 12.296875 -29.5625 C 14.734375 -29.5625 16.765625 -29.125 18.390625 -28.25 L 18.390625 -25.25 C 17.691406 -25.71875 16.773438 -26.109375 15.640625 -26.421875 C 14.515625 -26.742188 13.414062 -26.90625 12.34375 -26.90625 C 10.40625 -26.90625 8.851562 -26.445312 7.6875 -25.53125 C 6.53125 -24.625 5.953125 -23.414062 5.953125 -21.90625 C 5.953125 -21.125 6.101562 -20.425781 6.40625 -19.8125 C 6.71875 -19.207031 7.234375 -18.648438 7.953125 -18.140625 C 8.679688 -17.640625 9.3125 -17.25 9.84375 -16.96875 C 10.382812 -16.695312 11.203125 -16.328125 12.296875 -15.859375 C 13.316406 -15.429688 14.085938 -15.09375 14.609375 -14.84375 C 15.128906 -14.59375 15.796875 -14.207031 16.609375 -13.6875 C 17.421875 -13.164062 18.035156 -12.648438 18.453125 -12.140625 C 18.867188 -11.640625 19.242188 -10.988281 19.578125 -10.1875 C 19.910156 -9.394531 20.078125 -8.519531 20.078125 -7.5625 Z M 20.078125 -7.5625 "/></g></g></g><g fill="#5e17eb" fill-opacity="1"><g transform="translate(155.844539, 274.654773)"><g><path d="M 13.90625 -10.953125 L 13.90625 0 L 11.21875 0 L 11.21875 -10.953125 L 1.296875 -29.296875 L 4.390625 -29.296875 L 6.6875 -25 L 12.5625 -13.6875 C 12.789062 -14.238281 14.773438 -18.007812 18.515625 -25 L 20.828125 -29.296875 L 23.90625 -29.296875 Z M 13.90625 -10.953125 "/></g></g></g><g fill="#5e17eb" fill-opacity="1"><g transform="translate(181.054288, 274.654773)"><g><path d="M 6.171875 0 L 3.484375 0 L 3.484375 -29.296875 L 7.171875 -29.296875 L 14.65625 -16.90625 L 22.90625 -3.171875 C 22.851562 -6.179688 22.828125 -10.742188 22.828125 -16.859375 L 22.828125 -29.296875 L 25.515625 -29.296875 L 25.515625 0 L 21.828125 0 L 14.390625 -12.296875 L 6.078125 -26.125 C 6.140625 -23 6.171875 -18.421875 6.171875 -12.390625 Z M 6.171875 0 "/></g></g></g><g fill="#5e17eb" fill-opacity="1"><g transform="translate(210.045491, 274.654773)"><g><path d="M 24.296875 -1.515625 C 22.523438 -0.273438 20.09375 0.34375 17 0.34375 C 12.5625 0.34375 8.976562 -1 6.25 -3.6875 C 3.53125 -6.382812 2.171875 -10.097656 2.171875 -14.828125 C 2.171875 -19.234375 3.578125 -22.8125 6.390625 -25.5625 C 9.203125 -28.3125 12.679688 -29.6875 16.828125 -29.6875 C 19.691406 -29.6875 22.15625 -29.164062 24.21875 -28.125 L 24.21875 -25.296875 C 22.9375 -25.960938 21.800781 -26.429688 20.8125 -26.703125 C 19.832031 -26.984375 18.472656 -27.125 16.734375 -27.125 C 13.367188 -27.125 10.5625 -25.984375 8.3125 -23.703125 C 6.070312 -21.429688 4.953125 -18.472656 4.953125 -14.828125 C 4.953125 -10.992188 6.0625 -7.929688 8.28125 -5.640625 C 10.5 -3.359375 13.445312 -2.21875 17.125 -2.21875 C 20 -2.21875 22.390625 -2.972656 24.296875 -4.484375 Z M 24.296875 -1.515625 "/></g></g></g><g fill="#5e17eb" fill-opacity="1"><g transform="translate(236.081078, 274.654773)"><g><path d="M 24 0 L 21.296875 0 L 21.296875 -13.6875 L 6.171875 -13.6875 L 6.171875 0 L 3.484375 0 L 3.484375 -29.296875 L 6.171875 -29.296875 L 6.171875 -16.171875 L 21.296875 -16.171875 L 21.296875 -29.296875 L 24 -29.296875 Z M 24 0 "/></g></g></g></svg>