<svg xmlns="http://www.w3.org/2000/svg" xmlns:xlink="http://www.w3.org/1999/xlink" width="500" zoomAndPan="magnify" viewBox="0 0 375 374.999991" height="500" preserveAspectRatio="xMidYMid meet" version="1.0"><defs><clipPath id="606654856e"><path d="M 116.214844 131 L 227 131 L 227 258.714844 L 116.214844 258.714844 Z M 116.214844 131 " clip-rule="nonzero"/></clipPath><clipPath id="8d84004df1"><path d="M 152 116.214844 L 163 116.214844 L 163 126 L 152 126 Z M 152 116.214844 " clip-rule="nonzero"/></clipPath><clipPath id="1fcf32258a"><path d="M 189 154 L 213 154 L 213 258.714844 L 189 258.714844 Z M 189 154 " clip-rule="nonzero"/></clipPath></defs><g clip-path="url(#606654856e)"><path fill="#5e17eb" d="M 211.304688 255.148438 C 211.792969 256.839844 210.519531 258.53125 208.753906 258.53125 L 165.585938 258.53125 C 164.296875 258.53125 163.195312 257.609375 162.976562 256.335938 C 162.179688 251.761719 160.128906 241.4375 157.582031 239.070312 C 153.582031 235.355469 144.257812 237.570312 138.519531 237.808594 C 125.496094 238.480469 127.914062 228.671875 126.1875 218.980469 C 126.011719 217.976562 125.792969 216.96875 125.496094 215.976562 C 125.496094 215.960938 125.484375 215.953125 125.484375 215.9375 C 123.035156 207.660156 116.164062 209.492188 116.472656 203.628906 C 116.65625 200.050781 126.382812 195.4375 126.40625 184.191406 C 126.414062 181.027344 125.839844 176.191406 125.746094 172.898438 C 124.96875 147.988281 149.046875 129.921875 177.175781 131.382812 C 202.902344 132.710938 221.507812 146.664062 225.503906 173.015625 C 227.957031 189.265625 222.746094 202.488281 211 217.730469 C 208.054688 221.558594 206.597656 228.203125 206.902344 233.019531 C 207.390625 240.761719 209.867188 250.203125 211.304688 255.148438 " fill-opacity="1" fill-rule="nonzero"/></g><path fill="#92b4f4" d="M 213.023438 226.542969 C 229.609375 226.027344 247.898438 212.464844 247.585938 187.003906 C 247.324219 165.648438 258.648438 149.011719 246.082031 146.535156 C 235.964844 144.542969 231.15625 157.304688 221.171875 163.859375 C 221.171875 163.859375 207.558594 175.609375 204.492188 183.785156 C 201.429688 191.964844 198.488281 207.238281 201.550781 215.515625 C 204.617188 223.796875 209.757812 226.648438 213.023438 226.542969 " fill-opacity="1" fill-rule="nonzero"/><path fill="#cff27e" d="M 208.238281 224.707031 C 208.238281 224.707031 236.664062 208.644531 220.503906 172.773438 C 214.328125 159.078125 202.5625 146.316406 194.730469 132.703125 C 187.257812 119.710938 168.363281 125.09375 171.644531 139.90625 C 176.871094 163.519531 172.269531 169.820312 173.867188 184.121094 C 178.21875 222.929688 208.238281 224.707031 208.238281 224.707031 " fill-opacity="1" fill-rule="nonzero"/><path fill="#58504a" d="M 214.539062 141.53125 C 216.757812 142.929688 219.847656 142.25 221.296875 141.796875 C 221.796875 141.644531 222.09375 141.175781 222.023438 140.664062 C 221.800781 139.160156 221.085938 136.074219 218.875 134.671875 C 216.65625 133.277344 213.566406 133.957031 212.109375 134.402344 C 211.617188 134.554688 211.320312 135.023438 211.390625 135.542969 C 211.613281 137.046875 212.324219 140.132812 214.539062 141.53125 " fill-opacity="1" fill-rule="nonzero"/><g clip-path="url(#8d84004df1)"><path fill="#58504a" d="M 159.535156 124.472656 C 161.730469 123.039062 162.394531 119.941406 162.597656 118.4375 C 162.664062 117.917969 162.359375 117.453125 161.859375 117.308594 C 160.402344 116.882812 157.300781 116.246094 155.105469 117.679688 C 152.910156 119.109375 152.246094 122.207031 152.046875 123.714844 C 151.980469 124.226562 152.285156 124.691406 152.78125 124.839844 C 154.242188 125.261719 157.347656 125.902344 159.535156 124.472656 " fill-opacity="1" fill-rule="nonzero"/></g><path fill="#f4ecd6" d="M 132.777344 190.382812 C 132 190.382812 131.207031 190.195312 130.445312 189.742188 C 129.722656 189.308594 129.480469 188.367188 129.917969 187.640625 C 130.351562 186.914062 131.292969 186.675781 132.019531 187.109375 C 133.292969 187.871094 135.234375 186.253906 135.253906 186.234375 C 135.886719 185.679688 136.855469 185.742188 137.414062 186.378906 C 137.976562 187.015625 137.914062 187.980469 137.273438 188.542969 C 136.339844 189.363281 134.613281 190.382812 132.777344 190.382812 " fill-opacity="1" fill-rule="nonzero"/><path fill="#f4ecd6" d="M 134.386719 217.226562 C 131.050781 218.75 128.253906 218.996094 126.773438 218.996094 C 126.539062 218.996094 126.34375 218.996094 126.1875 218.980469 C 126.011719 217.976562 125.792969 216.96875 125.496094 215.976562 C 125.496094 215.960938 125.484375 215.953125 125.484375 215.9375 C 125.667969 215.890625 125.863281 215.875 126.0625 215.90625 C 126.125 215.90625 129.140625 216.246094 133.113281 214.445312 C 133.886719 214.089844 134.792969 214.429688 135.140625 215.207031 C 135.492188 215.976562 135.148438 216.882812 134.386719 217.226562 " fill-opacity="1" fill-rule="nonzero"/><g clip-path="url(#1fcf32258a)"><path fill="#f4ecd6" d="M 210.671875 258.773438 C 210.117188 258.773438 209.582031 258.472656 209.3125 257.945312 C 206.226562 251.96875 205.28125 239.804688 206.714844 224.5625 C 208.746094 202.949219 202.652344 170.847656 190.332031 157.519531 C 189.761719 156.898438 189.796875 155.925781 190.417969 155.355469 C 191.042969 154.777344 192.015625 154.820312 192.589844 155.4375 C 205.882812 169.820312 211.855469 202.667969 209.769531 224.847656 C 208.40625 239.300781 209.253906 251.152344 212.035156 256.539062 C 212.421875 257.289062 212.128906 258.214844 211.378906 258.601562 C 211.152344 258.71875 210.914062 258.773438 210.671875 258.773438 " fill-opacity="1" fill-rule="nonzero"/></g><path fill="#f4ecd6" d="M 202.925781 247.136719 C 202.585938 247.136719 202.242188 247.023438 201.953125 246.789062 C 201.820312 246.675781 198.542969 243.972656 196.378906 241.140625 C 195.867188 240.464844 195.992188 239.507812 196.667969 238.988281 C 197.339844 238.476562 198.300781 238.605469 198.8125 239.277344 C 200.761719 241.824219 203.871094 244.394531 203.90625 244.417969 C 204.554688 244.957031 204.652344 245.921875 204.117188 246.578125 C 203.8125 246.945312 203.371094 247.136719 202.925781 247.136719 " fill-opacity="1" fill-rule="nonzero"/><path fill="#cff27e" d="M 196.71875 241.75 C 184.5625 241.75 177.804688 236.730469 175.699219 232.339844 C 174.246094 229.316406 174.59375 226.175781 176.640625 223.722656 C 178.410156 221.605469 180.886719 220.730469 183.613281 221.269531 C 189.632812 222.453125 195.984375 230.050781 199.054688 239.746094 C 199.207031 240.207031 199.125 240.710938 198.839844 241.101562 C 198.558594 241.496094 198.113281 241.730469 197.628906 241.738281 C 197.324219 241.75 197.019531 241.75 196.71875 241.75 " fill-opacity="1" fill-rule="nonzero"/><path fill="#f4ecd6" d="M 214.136719 253.039062 C 213.605469 253.039062 213.09375 252.761719 212.808594 252.273438 C 212.382812 251.539062 212.632812 250.601562 213.367188 250.179688 C 218.113281 247.429688 220.019531 245.15625 220.039062 245.136719 C 220.578125 244.484375 221.542969 244.390625 222.195312 244.925781 C 222.84375 245.457031 222.945312 246.421875 222.414062 247.070312 C 222.328125 247.179688 220.195312 249.761719 214.902344 252.835938 C 214.660156 252.972656 214.394531 253.039062 214.136719 253.039062 " fill-opacity="1" fill-rule="nonzero"/><path fill="#92b4f4" d="M 221.226562 247.640625 C 220.789062 247.640625 220.367188 247.453125 220.070312 247.121094 C 219.699219 246.691406 219.59375 246.097656 219.789062 245.570312 C 222.828125 237.453125 226.09375 233.011719 229.503906 232.371094 C 230.707031 232.148438 232.503906 232.289062 234.25 234.242188 C 235.441406 235.574219 235.804688 237.238281 235.265625 238.929688 C 234.117188 242.574219 228.867188 245.898438 221.574219 247.597656 C 221.457031 247.628906 221.339844 247.640625 221.226562 247.640625 " fill-opacity="1" fill-rule="nonzero"/></svg>